<?xml version="1.0" standalone="no"?>
<!DOCTYPE svg PUBLIC "-//W3C//DTD SVG 1.1//EN" "http://www.w3.org/Graphics/SVG/1.1/DTD/svg11.dtd">
<svg version="1.1" xmlns="http://www.w3.org/2000/svg" viewBox="0 0 1445.1781859578964 563.1110743475226" width="1445.1781859578964" height="563.1110743475226"><!-- svg-source:excalidraw --><metadata></metadata><defs><style class="style-fonts">
      @font-face { font-family: Excalifont; src: url(https://esm.sh/@excalidraw/excalidraw/dist/prod/fonts/Excalifont/Excalifont-Regular-a88b72a24fb54c9f94e3b5fdaa7481c9.woff2); }</style></defs><rect x="0" y="0" width="1445.1781859578964" height="563.1110743475226" fill="#ffffff"></rect><g stroke-linecap="round" transform="translate(666.1680811628511 473.6046122503548) rotate(0 168.50637817382812 37.67084503173828)"><path d="M18.84 0 C124.16 0.76, 225.69 0.25, 318.18 0 C334.1 -3.47, 336.58 7.67, 337.01 18.84 C338.36 30.37, 333.36 47.3, 337.01 56.51 C339.51 67.51, 333.83 75.26, 318.18 75.34 C234.13 76.07, 150.2 75.22, 18.84 75.34 C7.8 76.62, 2.55 71.73, 0 56.51 C-0.62 45.02, 3.67 36.33, 0 18.84 C-1.77 9.06, 3.85 3.45, 18.84 0" stroke="none" stroke-width="0" fill="#b2f2bb"></path><path d="M18.84 0 C115.97 0.11, 211.94 -0.48, 318.18 0 M18.84 0 C130.71 -1.75, 243.89 -0.94, 318.18 0 M318.18 0 C330.58 -0.47, 338.64 5.54, 337.01 18.84 M318.18 0 C328.99 2.1, 335.51 5.28, 337.01 18.84 M337.01 18.84 C336.9 29.99, 335.51 40.53, 337.01 56.51 M337.01 18.84 C336.27 30.72, 336.57 41.93, 337.01 56.51 M337.01 56.51 C337.05 70.11, 331.29 76.95, 318.18 75.34 M337.01 56.51 C335.52 68.13, 329.63 77.53, 318.18 75.34 M318.18 75.34 C197.62 75.14, 79.95 77.09, 18.84 75.34 M318.18 75.34 C230 77.06, 141.55 76.93, 18.84 75.34 M18.84 75.34 C5.49 77.09, 1.03 69.22, 0 56.51 M18.84 75.34 C5.27 74.39, -0.76 66.92, 0 56.51 M0 56.51 C1.79 48.13, -1.7 38.98, 0 18.84 M0 56.51 C0.5 43.86, 0.35 32.35, 0 18.84 M0 18.84 C-0.32 7.46, 7.67 -1.07, 18.84 0 M0 18.84 C1.28 5.45, 5.1 -0.25, 18.84 0" stroke="#1e1e1e" stroke-width="2" fill="none"></path></g><g transform="translate(759.064535020273 486.2754572820931) rotate(0 75.60992431640625 25)"><text x="75.60992431640625" y="17.619999999999997" font-family="Excalifont, Xiaolai, Segoe UI Emoji" font-size="20px" fill="#1e1e1e" text-anchor="middle" style="white-space: pre;" direction="ltr" dominant-baseline="alphabetic">Front / Next.js</text><text x="75.60992431640625" y="42.62" font-family="Excalifont, Xiaolai, Segoe UI Emoji" font-size="20px" fill="#1e1e1e" text-anchor="middle" style="white-space: pre;" direction="ltr" dominant-baseline="alphabetic">/ (root)</text></g><g stroke-linecap="round" transform="translate(676.5100611433198 332.9718455267219) rotate(0 162.83538818359375 36.45570373535156)"><path d="M18.23 0 C122.16 -3.03, 221.53 -1.09, 307.44 0 C318.11 -3.3, 328.02 8.17, 325.67 18.23 C327.29 33.57, 329.09 43.41, 325.67 54.68 C324.28 70.06, 316.33 76.06, 307.44 72.91 C244.69 71.61, 182.32 72.86, 18.23 72.91 C6.67 70.68, 2.56 68.99, 0 54.68 C-2.1 47.41, -0.33 36.74, 0 18.23 C-0.29 5.81, 3.45 1.37, 18.23 0" stroke="none" stroke-width="0" fill="#a5d8ff"></path><path d="M18.23 0 C126.83 -2.18, 231.88 -1.16, 307.44 0 M18.23 0 C130.86 1.02, 242.69 1.46, 307.44 0 M307.44 0 C319.53 -1.96, 327.27 6.3, 325.67 18.23 M307.44 0 C321.65 1.5, 323.63 4.67, 325.67 18.23 M325.67 18.23 C326.88 27.17, 323.94 39.73, 325.67 54.68 M325.67 18.23 C325.07 25.23, 324.73 33.98, 325.67 54.68 M325.67 54.68 C323.69 67.31, 321.09 73.17, 307.44 72.91 M325.67 54.68 C325.51 67.21, 320.88 73.32, 307.44 72.91 M307.44 72.91 C233.61 71.35, 157.75 71.94, 18.23 72.91 M307.44 72.91 C204.33 75.16, 100.64 73.84, 18.23 72.91 M18.23 72.91 C4.61 72.85, 0.31 66.25, 0 54.68 M18.23 72.91 C5.43 72.84, -0.91 65.02, 0 54.68 M0 54.68 C-0.84 46.07, -1.39 34.66, 0 18.23 M0 54.68 C-0.53 42.46, 0.03 32.44, 0 18.23 M0 18.23 C-0.9 7.73, 7.78 1.37, 18.23 0 M0 18.23 C1.4 5.29, 7.46 0.72, 18.23 0" stroke="#1e1e1e" stroke-width="2" fill="none"></path></g><g transform="translate(805.1954783186128 356.92754926207346) rotate(0 34.14997100830078 12.5)"><text x="34.14997100830078" y="17.619999999999997" font-family="Excalifont, Xiaolai, Segoe UI Emoji" font-size="20px" fill="#1e1e1e" text-anchor="middle" style="white-space: pre;" direction="ltr" dominant-baseline="alphabetic">BFF ??</text></g><g stroke-linecap="round" transform="translate(768.8641871198823 194.62998761656564) rotate(0 80.20254516601562 37.26582336425781)"><path d="M18.63 0 C53.79 1.17, 96.04 -1.8, 141.77 0 C154.52 -2.64, 163.03 5.02, 160.41 18.63 C158.22 33.04, 160.87 46.76, 160.41 55.9 C160.19 65.76, 155 74.23, 141.77 74.53 C106.95 71.69, 81.17 71.94, 18.63 74.53 C2.84 76.56, -1.8 68.74, 0 55.9 C-2.66 45.28, 0.39 34.95, 0 18.63 C-3.51 9.69, 7.19 1.59, 18.63 0" stroke="none" stroke-width="0" fill="#a5d8ff"></path><path d="M18.63 0 C69.28 1.14, 115.2 1.72, 141.77 0 M18.63 0 C68.43 -0.49, 116.91 -0.07, 141.77 0 M141.77 0 C156.18 -0.55, 160.67 5.32, 160.41 18.63 M141.77 0 C154.05 -1.76, 161.04 6.03, 160.41 18.63 M160.41 18.63 C158.76 31.18, 159.51 43.97, 160.41 55.9 M160.41 18.63 C160.72 27.74, 159.55 38.26, 160.41 55.9 M160.41 55.9 C158.77 68.09, 154.92 74.28, 141.77 74.53 M160.41 55.9 C158.72 69.84, 156.21 74.64, 141.77 74.53 M141.77 74.53 C103.83 75.55, 68.44 73.98, 18.63 74.53 M141.77 74.53 C106.58 74.8, 72.6 75.17, 18.63 74.53 M18.63 74.53 C6.46 75.91, 1.03 68.35, 0 55.9 M18.63 74.53 C4.81 75.98, 0.78 67.11, 0 55.9 M0 55.9 C1.31 46.18, -0.89 37.99, 0 18.63 M0 55.9 C0.36 41.16, 0.71 28.44, 0 18.63 M0 18.63 C-0.35 7.42, 5.85 1.89, 18.63 0 M0 18.63 C-1.68 6.49, 5.9 1.63, 18.63 0" stroke="#1e1e1e" stroke-width="2" fill="none"></path></g><g transform="translate(789.8467921003511 219.39581098082346) rotate(0 59.219940185546875 12.5)"><text x="59.219940185546875" y="17.619999999999997" font-family="Excalifont, Xiaolai, Segoe UI Emoji" font-size="20px" fill="#1e1e1e" text-anchor="middle" style="white-space: pre;" direction="ltr" dominant-baseline="alphabetic">Blog Service</text></g><g stroke-linecap="round" transform="translate(311.14262950269483 202.7313670110969) rotate(0 80.20254516601562 37.26582336425781)"><path d="M18.63 0 C55.08 -0.96, 93.46 -0.54, 141.77 0 C152.39 -2.54, 158.8 3.79, 160.41 18.63 C162.85 25.37, 158.89 35.14, 160.41 55.9 C162.41 64.87, 153.08 74.62, 141.77 74.53 C99.13 77.09, 49.46 78.14, 18.63 74.53 C3.16 77.87, -2.79 66.13, 0 55.9 C0.26 43.54, -2.3 30.36, 0 18.63 C1.38 5.17, 8.95 -0.86, 18.63 0" stroke="none" stroke-width="0" fill="#a5d8ff"></path><path d="M18.63 0 C44.46 -0.01, 66.77 0.21, 141.77 0 M18.63 0 C51.13 0.87, 86.53 0.15, 141.77 0 M141.77 0 C155.53 1.16, 162.09 5.36, 160.41 18.63 M141.77 0 C155.41 -2.12, 161.76 4.47, 160.41 18.63 M160.41 18.63 C161.06 28.09, 158.71 34.91, 160.41 55.9 M160.41 18.63 C159.94 27.99, 159.4 36.84, 160.41 55.9 M160.41 55.9 C159.72 69.65, 154.5 74.62, 141.77 74.53 M160.41 55.9 C160.92 68.03, 153.81 76.73, 141.77 74.53 M141.77 74.53 C94.42 75.01, 48.41 76.2, 18.63 74.53 M141.77 74.53 C104.03 75.98, 66.71 74.64, 18.63 74.53 M18.63 74.53 C5.21 76.15, 0.97 69.8, 0 55.9 M18.63 74.53 C8.06 75.94, -2.21 69.19, 0 55.9 M0 55.9 C0.54 46.33, -1.88 32.36, 0 18.63 M0 55.9 C-0.43 45.58, 0.12 34.6, 0 18.63 M0 18.63 C-1.62 7.15, 6.34 -0.74, 18.63 0 M0 18.63 C0.55 4.57, 7.13 -2.28, 18.63 0" stroke="#1e1e1e" stroke-width="2" fill="none"></path></g><g transform="translate(330.0952357038667 227.4971903753547) rotate(0 61.24993896484375 12.5)"><text x="61.24993896484375" y="17.619999999999997" font-family="Excalifont, Xiaolai, Segoe UI Emoji" font-size="20px" fill="#1e1e1e" text-anchor="middle" style="white-space: pre;" direction="ltr" dominant-baseline="alphabetic">Auth Service</text></g><g stroke-linecap="round" transform="translate(247.95271861402296 477.769384284046) rotate(0 168.50637817382807 37.67084503173828)"><path d="M18.84 0 C97.58 2.1, 180.84 -0.98, 318.18 0 C328.19 -2.72, 338.53 5.4, 337.01 18.84 C340.69 34.06, 339.33 47.37, 337.01 56.51 C336.61 72.13, 328.85 76.27, 318.18 75.34 C244.3 69.66, 176.49 71.7, 18.84 75.34 C6.82 75.24, -0.2 66.23, 0 56.51 C-0.04 46.19, -2.35 27.86, 0 18.84 C1.61 6.76, 6.83 0.59, 18.84 0" stroke="none" stroke-width="0" fill="#b2f2bb"></path><path d="M18.84 0 C119.8 0.72, 220.58 -0.04, 318.18 0 M18.84 0 C88.04 -0.88, 155.84 0.32, 318.18 0 M318.18 0 C329.98 1.37, 336.75 6.18, 337.01 18.84 M318.18 0 C331.66 1.67, 337.33 5.99, 337.01 18.84 M337.01 18.84 C337.61 29.67, 337.93 41.75, 337.01 56.51 M337.01 18.84 C337.51 28.17, 337.75 38.78, 337.01 56.51 M337.01 56.51 C335.03 69.48, 329.2 73.59, 318.18 75.34 M337.01 56.51 C336.6 68.46, 331.42 75.45, 318.18 75.34 M318.18 75.34 C214.46 75.89, 108.18 76.32, 18.84 75.34 M318.18 75.34 C255.87 75.31, 192.48 74.36, 18.84 75.34 M18.84 75.34 C5.92 73.73, 1.72 69.08, 0 56.51 M18.84 75.34 C7.53 74.77, 1.15 69.22, 0 56.51 M0 56.51 C-0.47 47.74, 0.73 40.32, 0 18.84 M0 56.51 C0.86 48.52, 0.94 41.21, 0 18.84 M0 18.84 C-0.12 7.18, 5.02 0.87, 18.84 0 M0 18.84 C0.97 4.25, 7.06 0.67, 18.84 0" stroke="#1e1e1e" stroke-width="2" fill="none"></path></g><g transform="translate(364.4891566023042 490.4402293157843) rotate(0 51.969940185546875 25)"><text x="51.969940185546875" y="17.619999999999997" font-family="Excalifont, Xiaolai, Segoe UI Emoji" font-size="20px" fill="#1e1e1e" text-anchor="middle" style="white-space: pre;" direction="ltr" dominant-baseline="alphabetic">WebSocket</text><text x="51.969940185546875" y="42.62" font-family="Excalifont, Xiaolai, Segoe UI Emoji" font-size="20px" fill="#1e1e1e" text-anchor="middle" style="white-space: pre;" direction="ltr" dominant-baseline="alphabetic">/ws/</text></g><g stroke-linecap="round" transform="translate(764.8136500105073 40.53051499121955) rotate(0 88.30380249023438 34.43038940429685)"><path d="M17.22 0 C54.27 -1.31, 93.43 -2.51, 159.39 0 C169.24 0.43, 174.71 9.27, 176.61 17.22 C179.36 24.14, 177.17 34.96, 176.61 51.65 C175.06 63.95, 169.55 67.2, 159.39 68.86 C119.43 69.94, 81.89 67.35, 17.22 68.86 C6.46 65.54, -2.23 63.69, 0 51.65 C3.68 40.86, -0.52 35.98, 0 17.22 C-0.5 3.07, 4.16 -2.36, 17.22 0" stroke="none" stroke-width="0" fill="#ffc9c9"></path><path d="M17.22 0 C48.94 1.41, 78.62 2.02, 159.39 0 M17.22 0 C46.75 -0.09, 75.47 -1.89, 159.39 0 M159.39 0 C172.57 -1.63, 178.06 5.68, 176.61 17.22 M159.39 0 C169.75 -0.77, 177.38 6.7, 176.61 17.22 M176.61 17.22 C177.4 24.18, 176.38 30.31, 176.61 51.65 M176.61 17.22 C177.56 27.05, 176.87 38.24, 176.61 51.65 M176.61 51.65 C177.15 62.61, 170.78 66.91, 159.39 68.86 M176.61 51.65 C176.69 64.25, 169.12 69.85, 159.39 68.86 M159.39 68.86 C123.76 68.97, 83.74 69.33, 17.22 68.86 M159.39 68.86 C111.87 67.38, 64.78 68.99, 17.22 68.86 M17.22 68.86 C4.95 69.2, 0.81 61.57, 0 51.65 M17.22 68.86 C6.39 68.38, -2.11 64.94, 0 51.65 M0 51.65 C-1.38 39.52, -0.24 27.63, 0 17.22 M0 51.65 C0.29 41.51, -0.11 31.87, 0 17.22 M0 17.22 C1.77 4.98, 5.43 -0.51, 17.22 0 M0 17.22 C0.61 6.31, 7.13 -1.83, 17.22 0" stroke="#1e1e1e" stroke-width="2" fill="none"></path></g><g transform="translate(837.7074640974214 62.46090439551642) rotate(0 15.409988403320312 12.499999999999972)"><text x="15.409988403320312" y="17.619999999999997" font-family="Excalifont, Xiaolai, Segoe UI Emoji" font-size="20px" fill="#1e1e1e" text-anchor="middle" style="white-space: pre;" direction="ltr" dominant-baseline="alphabetic">DB</text></g><g stroke-linecap="round" transform="translate(511.24385630933546 35.6696675180749) rotate(0 99.24057006835938 35.64556121826175)"><path d="M17.82 0 C64.16 -0.92, 109.05 -3.9, 180.66 0 C192.09 1.94, 201.53 8.6, 198.48 17.82 C201.75 23.16, 196.36 34.65, 198.48 53.47 C201.77 65.09, 192.12 69.35, 180.66 71.29 C124.58 70.62, 74.8 72.21, 17.82 71.29 C8.68 71.82, -3.13 66.57, 0 53.47 C0.72 44.78, -3.28 32.41, 0 17.82 C-1.34 6.48, 4.56 -0.63, 17.82 0" stroke="none" stroke-width="0" fill="#ffc9c9"></path><path d="M17.82 0 C57 -0.16, 95.49 0.46, 180.66 0 M17.82 0 C69.5 1.28, 120.32 0.24, 180.66 0 M180.66 0 C192.03 0.53, 198.98 7.15, 198.48 17.82 M180.66 0 C190.71 -0.8, 197.54 5.99, 198.48 17.82 M198.48 17.82 C196.99 26.96, 198.59 36.86, 198.48 53.47 M198.48 17.82 C197.59 32.75, 198.08 46.33, 198.48 53.47 M198.48 53.47 C200.33 64.49, 193 70.56, 180.66 71.29 M198.48 53.47 C197.42 64.68, 194.79 70.2, 180.66 71.29 M180.66 71.29 C138.12 71.49, 94.07 69.85, 17.82 71.29 M180.66 71.29 C129.95 70.55, 76.92 69.38, 17.82 71.29 M17.82 71.29 C5.51 71.02, -1.48 64.47, 0 53.47 M17.82 71.29 C4.43 71.95, -0.44 66.22, 0 53.47 M0 53.47 C-1.95 40.73, -0.05 26.24, 0 17.82 M0 53.47 C-0.03 43.3, 1.03 32.15, 0 17.82 M0 17.82 C-0.99 4.71, 5.02 -0.26, 17.82 0 M0 17.82 C-1.52 7.32, 7.8 0.03, 17.82 0" stroke="#1e1e1e" stroke-width="2" fill="none"></path></g><g transform="translate(534.9644907697847 58.81522873633662) rotate(0 75.51993560791016 12.500000000000028)"><text x="75.51993560791016" y="17.619999999999997" font-family="Excalifont, Xiaolai, Segoe UI Emoji" font-size="20px" fill="#1e1e1e" text-anchor="middle" style="white-space: pre;" direction="ltr" dominant-baseline="alphabetic">Redis / PubSub</text></g><g stroke-linecap="round"><g transform="translate(848.2854959161917 193.98216224958668) rotate(0 -1.781176920206235 -42.00865070986845)"><path d="M0.6 0.95 C0.22 -13.27, -2.36 -70.6, -2.99 -84.59 M-0.54 0.41 C-0.97 -13.73, -3.1 -69.15, -3.64 -83.35" stroke="#1e1e1e" stroke-width="2" fill="none"></path></g><g transform="translate(848.2854959161917 193.98216224958668) rotate(0 -1.781176920206235 -42.00865070986845)"><path d="M5.8 -60.2 C4.97 -64.78, 0.15 -70.67, -3.64 -83.35 M5.8 -60.2 C1.81 -69.48, -1.65 -77.34, -3.64 -83.35" stroke="#1e1e1e" stroke-width="2" fill="none"></path></g><g transform="translate(848.2854959161917 193.98216224958668) rotate(0 -1.781176920206235 -42.00865070986845)"><path d="M-11.29 -59.55 C-8.01 -64.37, -8.7 -70.42, -3.64 -83.35 M-11.29 -59.55 C-8.69 -69.21, -5.56 -77.32, -3.64 -83.35" stroke="#1e1e1e" stroke-width="2" fill="none"></path></g></g><mask></mask><g stroke-linecap="round"><g transform="translate(844.832867560716 332.6115603666927) rotate(0 0.018482812209867916 -30.982543860112855)"><path d="M-0.91 0.12 C-1.2 -10.23, -1.12 -51.71, -1 -62.09 M0.81 -0.86 C0.82 -11.02, 1.47 -50.61, 1.16 -60.62" stroke="#1e1e1e" stroke-width="2" fill="none"></path></g><g transform="translate(844.832867560716 332.6115603666927) rotate(0 0.018482812209867916 -30.982543860112855)"><path d="M9.81 -37.17 C6.91 -47.37, 3.4 -54.4, 1.16 -60.62 M9.81 -37.17 C7.23 -43.61, 3.93 -51.32, 1.16 -60.62" stroke="#1e1e1e" stroke-width="2" fill="none"></path></g><g transform="translate(844.832867560716 332.6115603666927) rotate(0 0.018482812209867916 -30.982543860112855)"><path d="M-7.29 -37.1 C-4.06 -47.19, -1.44 -54.25, 1.16 -60.62 M-7.29 -37.1 C-5.01 -43.62, -3.45 -51.35, 1.16 -60.62" stroke="#1e1e1e" stroke-width="2" fill="none"></path></g></g><mask></mask><g stroke-linecap="round"><g transform="translate(841.2269803025109 473.382189063859) rotate(0 0.31779265256432154 -33.620140381704175)"><path d="M-0.65 -0.56 C-0.62 -12.06, 1.07 -56.77, 1.1 -67.87 M1.2 1.77 C1.05 -9.07, 0.29 -55.4, 0.4 -66.67" stroke="#1e1e1e" stroke-width="2" fill="none"></path></g><g transform="translate(841.2269803025109 473.382189063859) rotate(0 0.31779265256432154 -33.620140381704175)"><path d="M9.08 -43.22 C4.69 -51.24, 1.33 -62.57, 0.4 -66.67 M9.08 -43.22 C5.63 -49.47, 4.14 -56.65, 0.4 -66.67" stroke="#1e1e1e" stroke-width="2" fill="none"></path></g><g transform="translate(841.2269803025109 473.382189063859) rotate(0 0.31779265256432154 -33.620140381704175)"><path d="M-8.02 -43.13 C-6.03 -51.09, -3.01 -62.46, 0.4 -66.67 M-8.02 -43.13 C-6.27 -49.47, -2.57 -56.67, 0.4 -66.67" stroke="#1e1e1e" stroke-width="2" fill="none"></path></g></g><mask></mask><g stroke-linecap="round"><g transform="translate(610.8109872369332 112.82787033034248) rotate(0 -50.69725013213997 181.9141457091095)"><path d="M-0.02 0.25 C-16.95 60.67, -84.84 303.1, -101.87 363.54 M-1.48 -0.67 C-18.6 60.45, -86.69 304.2, -103.07 364.92" stroke="#1e1e1e" stroke-width="2" fill="none"></path></g><g transform="translate(610.8109872369332 112.82787033034248) rotate(0 -50.69725013213997 181.9141457091095)"><path d="M-105.08 340 C-103.89 346.18, -104.23 352.55, -103.07 364.92 M-105.08 340 C-105.03 345.72, -104.97 350.29, -103.07 364.92" stroke="#1e1e1e" stroke-width="2" fill="none"></path></g><g transform="translate(610.8109872369332 112.82787033034248) rotate(0 -50.69725013213997 181.9141457091095)"><path d="M-88.59 344.54 C-92.06 349.45, -97.01 354.55, -103.07 364.92 M-88.59 344.54 C-92.17 349.1, -95.74 352.68, -103.07 364.92" stroke="#1e1e1e" stroke-width="2" fill="none"></path></g></g><mask></mask><g stroke-linecap="round"><g transform="translate(490.1127715040262 476.6793250675025) rotate(0 50.2110790212638 -184.68759173291278)"><path d="M-0.26 0.67 C16.57 -60.69, 84.8 -307.47, 101.54 -369.1 M1.8 -0.02 C18.53 -61.68, 84.94 -309.8, 101.18 -371.08" stroke="#1e1e1e" stroke-width="2" fill="none"></path></g><g transform="translate(490.1127715040262 476.6793250675025) rotate(0 50.2110790212638 -184.68759173291278)"><path d="M103.39 -346.18 C103.94 -352.93, 102.52 -363.83, 101.18 -371.08 M103.39 -346.18 C102.12 -354.58, 102.36 -362.06, 101.18 -371.08" stroke="#1e1e1e" stroke-width="2" fill="none"></path></g><g transform="translate(490.1127715040262 476.6793250675025) rotate(0 50.2110790212638 -184.68759173291278)"><path d="M86.87 -350.58 C93.09 -355.77, 97.38 -365.15, 101.18 -371.08 M86.87 -350.58 C90.83 -357.62, 96.34 -363.69, 101.18 -371.08" stroke="#1e1e1e" stroke-width="2" fill="none"></path></g></g><mask></mask><g stroke-linecap="round"><g transform="translate(799.0780702175397 190.8998606765809) rotate(0 -54.457481889654844 -39.225601307112925)"><path d="M-1.18 0.06 C-19.29 -12.9, -91.43 -64.6, -109.46 -77.68 M0.4 -0.96 C-17.85 -14.27, -92.23 -66.71, -110.7 -79.4" stroke="#1e1e1e" stroke-width="2" fill="none"></path></g><g transform="translate(799.0780702175397 190.8998606765809) rotate(0 -54.457481889654844 -39.225601307112925)"><path d="M-86.54 -72.96 C-92.13 -75.62, -96.63 -76.98, -110.7 -79.4 M-86.54 -72.96 C-93.6 -74.42, -100.32 -75.86, -110.7 -79.4" stroke="#1e1e1e" stroke-width="2" fill="none"></path></g><g transform="translate(799.0780702175397 190.8998606765809) rotate(0 -54.457481889654844 -39.225601307112925)"><path d="M-96.32 -58.94 C-99.63 -64.81, -101.82 -69.46, -110.7 -79.4 M-96.32 -58.94 C-100.55 -64.66, -104.3 -70.35, -110.7 -79.4" stroke="#1e1e1e" stroke-width="2" fill="none"></path></g></g><mask></mask><g stroke-linecap="round" transform="translate(1064.9501586141464 473.3633072491804) rotate(0 185.114013671875 35.265838623046875)"><path d="M17.63 0 C116.13 4.19, 214.34 -0.36, 352.6 0 C362.17 2.46, 368.65 5.03, 370.23 17.63 C371.08 23.88, 370.35 29.75, 370.23 52.9 C366.74 65.53, 364.94 70.33, 352.6 70.53 C281.79 65.41, 209.99 68.73, 17.63 70.53 C2.35 67.54, -0.68 67.11, 0 52.9 C-2.59 43.86, 1.37 34.69, 0 17.63 C-2.15 7.69, 4.52 0.25, 17.63 0" stroke="none" stroke-width="0" fill="#b2f2bb"></path><path d="M17.63 0 C117.82 -0.7, 220.19 -0.13, 352.6 0 M17.63 0 C125.42 0.17, 233.13 -0.08, 352.6 0 M352.6 0 C365.2 1.74, 371.09 7.57, 370.23 17.63 M352.6 0 C362.45 -2.24, 371.19 3.96, 370.23 17.63 M370.23 17.63 C369.07 30.78, 369.55 42.37, 370.23 52.9 M370.23 17.63 C369.92 25.41, 370.84 32.15, 370.23 52.9 M370.23 52.9 C370.87 65.09, 366.22 70.4, 352.6 70.53 M370.23 52.9 C368.64 65.42, 362.8 72.39, 352.6 70.53 M352.6 70.53 C262.66 68.53, 172.21 69.13, 17.63 70.53 M352.6 70.53 C231.92 71.6, 110.03 71.91, 17.63 70.53 M17.63 70.53 C6.79 72.1, -1 63.16, 0 52.9 M17.63 70.53 C5.95 69.22, -1.04 66.62, 0 52.9 M0 52.9 C-0.99 38.88, -0.83 24.07, 0 17.63 M0 52.9 C-1.32 44.9, -0.66 35.84, 0 17.63 M0 17.63 C-1.92 6.49, 7.01 0.11, 17.63 0 M0 17.63 C1.19 7.23, 4.71 0.19, 17.63 0" stroke="#1e1e1e" stroke-width="2" fill="none"></path></g><g transform="translate(1087.9643035116073 483.6291458722273) rotate(0 162.09986877441406 25)"><text x="162.09986877441406" y="17.619999999999997" font-family="Excalifont, Xiaolai, Segoe UI Emoji" font-size="20px" fill="#1e1e1e" text-anchor="middle" style="white-space: pre;" direction="ltr" dominant-baseline="alphabetic">Admin / Templ / HTMX / Alpine.js</text><text x="162.09986877441406" y="42.62" font-family="Excalifont, Xiaolai, Segoe UI Emoji" font-size="20px" fill="#1e1e1e" text-anchor="middle" style="white-space: pre;" direction="ltr" dominant-baseline="alphabetic">/admin/</text></g><g stroke-linecap="round"><g transform="translate(1152.5232419240292 472.5051683190173) rotate(0 -107.50153217348202 -126.3206349838494)"><path d="M0.3 -0.41 C-17.47 -29.46, -70.45 -132.17, -106.5 -174.04 C-142.55 -215.91, -198.11 -238.59, -216 -251.63 M-1 -1.67 C-18.4 -31.06, -68.73 -133.69, -104.17 -175.65 C-139.6 -217.61, -194.88 -240.89, -213.62 -253.43" stroke="#1e1e1e" stroke-width="2" fill="none"></path></g><g transform="translate(1152.5232419240292 472.5051683190173) rotate(0 -107.50153217348202 -126.3206349838494)"><path d="M-188.99 -249.2 C-197.36 -251.66, -202.72 -253.44, -213.62 -253.43 M-188.99 -249.2 C-198.9 -250.95, -207.38 -252.19, -213.62 -253.43" stroke="#1e1e1e" stroke-width="2" fill="none"></path></g><g transform="translate(1152.5232419240292 472.5051683190173) rotate(0 -107.50153217348202 -126.3206349838494)"><path d="M-197.47 -234.36 C-203.23 -241.46, -205.94 -247.87, -213.62 -253.43 M-197.47 -234.36 C-204.27 -241.84, -209.48 -248.79, -213.62 -253.43" stroke="#1e1e1e" stroke-width="2" fill="none"></path></g></g><mask></mask><g stroke-linecap="round"><g transform="translate(460.4168349173452 198.87194035387796) rotate(0 28.012711931876197 -44.90200371102202)"><path d="M0.82 0.9 C10.44 -14.07, 47.36 -75.75, 56.63 -90.88 M-0.21 0.32 C9.39 -14.44, 46.65 -75.08, 55.99 -89.91" stroke="#1e1e1e" stroke-width="2" fill="none"></path></g><g transform="translate(460.4168349173452 198.87194035387796) rotate(0 28.012711931876197 -44.90200371102202)"><path d="M50.85 -65.45 C53.64 -69.6, 51.43 -75.07, 55.99 -89.91 M50.85 -65.45 C52.49 -73.54, 53.23 -80.25, 55.99 -89.91" stroke="#1e1e1e" stroke-width="2" fill="none"></path></g><g transform="translate(460.4168349173452 198.87194035387796) rotate(0 28.012711931876197 -44.90200371102202)"><path d="M36.33 -74.47 C42.08 -76.84, 42.9 -80.42, 55.99 -89.91 M36.33 -74.47 C42.22 -79.92, 47.19 -84, 55.99 -89.91" stroke="#1e1e1e" stroke-width="2" fill="none"></path></g></g><mask></mask><g stroke-linecap="round" transform="translate(327.560036574738 37.215762967788294) rotate(0 69.67088317871094 34.512657165527344)"><path d="M17.26 0 C51.76 1.73, 78.87 0.69, 122.09 0 C132.58 -3.27, 136.96 2.93, 139.34 17.26 C137.92 27.11, 138.38 36.74, 139.34 51.77 C139.1 63.25, 132.07 65.61, 122.09 69.03 C81.93 68.28, 51.15 66.1, 17.26 69.03 C6.2 72.5, -2.6 60.91, 0 51.77 C0.58 40.73, 1.63 33.73, 0 17.26 C-0.24 2.99, 2.93 1.94, 17.26 0" stroke="none" stroke-width="0" fill="#ffc9c9"></path><path d="M17.26 0 C46.24 -0.24, 79.55 -0.07, 122.09 0 M17.26 0 C53.58 -0.06, 90.87 -0.35, 122.09 0 M122.09 0 C132.46 -0.36, 140.08 5.57, 139.34 17.26 M122.09 0 C132.05 1.86, 138.92 7.75, 139.34 17.26 M139.34 17.26 C140.42 29.09, 139.23 39.44, 139.34 51.77 M139.34 17.26 C139.54 25.06, 139.22 32.95, 139.34 51.77 M139.34 51.77 C139.73 61.63, 131.88 69.03, 122.09 69.03 M139.34 51.77 C138.99 62.18, 132.31 70.64, 122.09 69.03 M122.09 69.03 C97.79 70.34, 68.86 71.45, 17.26 69.03 M122.09 69.03 C89.6 69.45, 57.39 69.61, 17.26 69.03 M17.26 69.03 C5.62 68.95, -0.69 63.87, 0 51.77 M17.26 69.03 C4.4 67.7, 1.11 64.19, 0 51.77 M0 51.77 C-0.05 41.66, 1.4 29.27, 0 17.26 M0 51.77 C-0.11 39.39, 0.55 27.09, 0 17.26 M0 17.26 C-0.73 4.5, 6.58 1.46, 17.26 0 M0 17.26 C-1.05 4.98, 7.96 1.97, 17.26 0" stroke="#1e1e1e" stroke-width="2" fill="none"></path></g><g transform="translate(381.8209313501286 59.22842013331564) rotate(0 15.409988403320312 12.5)"><text x="15.409988403320312" y="17.619999999999997" font-family="Excalifont, Xiaolai, Segoe UI Emoji" font-size="20px" fill="#1e1e1e" text-anchor="middle" style="white-space: pre;" direction="ltr" dominant-baseline="alphabetic">DB</text></g><g stroke-linecap="round"><g transform="translate(394.95634457425626 201.56777080177454) rotate(0 0.4515141486015182 -45.3405268403406)"><path d="M-0.45 -0.24 C-0.32 -15.16, 1.22 -75.08, 1.33 -90.35 M1.52 -1.41 C1.48 -16.64, 0.41 -77.35, 0.6 -92.3" stroke="#1e1e1e" stroke-width="2" fill="none"></path></g><g transform="translate(394.95634457425626 201.56777080177454) rotate(0 0.4515141486015182 -45.3405268403406)"><path d="M9.26 -68.85 C6.01 -76.33, 3.94 -86.41, 0.6 -92.3 M9.26 -68.85 C6.84 -72.95, 6.3 -78.68, 0.6 -92.3" stroke="#1e1e1e" stroke-width="2" fill="none"></path></g><g transform="translate(394.95634457425626 201.56777080177454) rotate(0 0.4515141486015182 -45.3405268403406)"><path d="M-7.84 -68.77 C-5.14 -76.22, -1.25 -86.32, 0.6 -92.3 M-7.84 -68.77 C-6.78 -72.93, -3.85 -78.69, 0.6 -92.3" stroke="#1e1e1e" stroke-width="2" fill="none"></path></g></g><mask></mask><g stroke-linecap="round" transform="translate(35.924041748046875 65.27165446350483) rotate(0 23.088607788085938 12.556964874267578)"><path d="M6.28 0 C17.79 1.47, 24.08 -1.21, 39.9 0 C44.45 -0.62, 45.02 0.76, 46.18 6.28 C47.22 11.49, 47.65 13.72, 46.18 18.84 C45.63 26.2, 42.28 22.64, 39.9 25.11 C26.68 23.98, 13.78 26.06, 6.28 25.11 C0.09 24, -3.53 26.56, 0 18.84 C0.32 17.33, -0.25 15.56, 0 6.28 C0.78 3.32, -0.84 2.18, 6.28 0" stroke="none" stroke-width="0" fill="#ffc9c9"></path><path d="M6.28 0 C16.29 -1.04, 29.63 -1.07, 39.9 0 M6.28 0 C18.5 0.27, 30.11 -0.67, 39.9 0 M39.9 0 C44.37 -0.74, 44.76 2.12, 46.18 6.28 M39.9 0 C42.23 1.52, 45.79 2.95, 46.18 6.28 M46.18 6.28 C45.85 9.17, 46.37 12.15, 46.18 18.84 M46.18 6.28 C46.64 10.14, 46.38 14.05, 46.18 18.84 M46.18 18.84 C47.08 24.08, 42.38 23.91, 39.9 25.11 M46.18 18.84 C47.03 23.09, 45.68 25.95, 39.9 25.11 M39.9 25.11 C35.07 25.23, 25.83 24.49, 6.28 25.11 M39.9 25.11 C29.76 24.96, 17.75 25.95, 6.28 25.11 M6.28 25.11 C2.68 25.61, -0.11 23.61, 0 18.84 M6.28 25.11 C2.28 26.59, -1.39 25.02, 0 18.84 M0 18.84 C-0.23 16.76, -0.12 13.76, 0 6.28 M0 18.84 C0.12 15.99, -0.18 12.91, 0 6.28 M0 6.28 C-0.52 2.93, 3.05 -1.33, 6.28 0 M0 6.28 C0.84 1.28, 1.43 -2.13, 6.28 0" stroke="#1e1e1e" stroke-width="2" fill="none"></path></g><g stroke-linecap="round" transform="translate(38.35443115234375 118.74001536438374) rotate(0 22.278472900390625 12.151901245117188)"><path d="M6.08 0 C15.06 0.6, 20.62 -0.51, 38.48 0 C41.56 -2.36, 47.26 0.94, 44.56 6.08 C45.07 7.92, 45.56 15.43, 44.56 18.23 C47.13 24.31, 45.63 24.56, 38.48 24.3 C31.78 25.39, 27.25 25, 6.08 24.3 C3.21 21.88, 2.87 21.53, 0 18.23 C-1.39 16.7, -1.36 13.39, 0 6.08 C-2.33 5.23, -1.2 0.11, 6.08 0" stroke="none" stroke-width="0" fill="#a5d8ff"></path><path d="M6.08 0 C15.19 1.75, 25.84 0.54, 38.48 0 M6.08 0 C16.26 -0.63, 26.03 -0.62, 38.48 0 M38.48 0 C44.51 -0.06, 44.39 3.53, 44.56 6.08 M38.48 0 C42.53 1.78, 43.43 1.69, 44.56 6.08 M44.56 6.08 C44.19 9.39, 44.26 11.77, 44.56 18.23 M44.56 6.08 C44.26 10.13, 43.91 14.61, 44.56 18.23 M44.56 18.23 C43.07 22.52, 43.05 25.16, 38.48 24.3 M44.56 18.23 C42.42 21.55, 42.77 23.91, 38.48 24.3 M38.48 24.3 C30.19 25.3, 22 25.15, 6.08 24.3 M38.48 24.3 C27.6 23.75, 14.26 25.08, 6.08 24.3 M6.08 24.3 C2.86 25.11, -0.19 21.51, 0 18.23 M6.08 24.3 C1.79 24.75, -1.28 21.57, 0 18.23 M0 18.23 C-0.39 16.08, 0.03 13.87, 0 6.08 M0 18.23 C0.11 14.25, 0.27 10.72, 0 6.08 M0 6.08 C0.01 2.44, 2.81 -0.1, 6.08 0 M0 6.08 C-1.08 3.57, 1.14 -2.2, 6.08 0" stroke="#1e1e1e" stroke-width="2" fill="none"></path></g><g stroke-linecap="round" transform="translate(36.73419189453125 171.39824900696186) rotate(0 22.683547973632812 11.746849060058594)"><path d="M5.87 0 C19.39 -3.39, 33.75 -0.2, 39.49 0 C42.36 3.43, 48.89 4.91, 45.37 5.87 C45.01 7.9, 45.8 11.89, 45.37 17.62 C41.86 23.17, 43.12 21.56, 39.49 23.49 C30.59 22.75, 18.94 25.22, 5.87 23.49 C2.83 23.2, 0.91 18.4, 0 17.62 C0.37 13.53, 0.05 13.86, 0 5.87 C2.3 2.8, 2.47 -1.11, 5.87 0" stroke="none" stroke-width="0" fill="#b2f2bb"></path><path d="M5.87 0 C19.85 -0.95, 28.92 1.71, 39.49 0 M5.87 0 C16.98 -0.07, 29.05 -0.52, 39.49 0 M39.49 0 C42.79 -1.96, 47.33 -0.01, 45.37 5.87 M39.49 0 C42.91 0.58, 45.65 3.01, 45.37 5.87 M45.37 5.87 C45.86 8.29, 46.17 11.58, 45.37 17.62 M45.37 5.87 C45.36 9.13, 45.79 12.71, 45.37 17.62 M45.37 17.62 C43.46 21.04, 42.52 24.44, 39.49 23.49 M45.37 17.62 C45.41 22.1, 41.31 23.34, 39.49 23.49 M39.49 23.49 C29.71 24.3, 21.41 22.29, 5.87 23.49 M39.49 23.49 C29.3 24.36, 18.39 24.5, 5.87 23.49 M5.87 23.49 C2.1 21.76, 1.52 22.96, 0 17.62 M5.87 23.49 C2.1 23.92, 1.66 21.71, 0 17.62 M0 17.62 C-0.16 13.55, 0.98 10.5, 0 5.87 M0 17.62 C0.47 14.37, 0.42 11.36, 0 5.87 M0 5.87 C0.06 3.17, 3.15 0.35, 5.87 0 M0 5.87 C-2.01 -0.25, 1.93 -0.3, 5.87 0" stroke="#1e1e1e" stroke-width="2" fill="none"></path></g><g transform="translate(99.924072265625 175.44883189270405) rotate(0 22.192047119140625 10)"><text x="0" y="14.096" font-family="Excalifont, Xiaolai, Segoe UI Emoji" font-size="16px" fill="#1e1e1e" text-anchor="start" style="white-space: pre;" direction="ltr" dominant-baseline="alphabetic">Public</text></g><g transform="translate(101.54428100585938 125.22101817200092) rotate(0 27.048049926757812 10)"><text x="0" y="14.096" font-family="Excalifont, Xiaolai, Segoe UI Emoji" font-size="16px" fill="#1e1e1e" text-anchor="start" style="white-space: pre;" direction="ltr" dominant-baseline="alphabetic">Service</text></g><g transform="translate(101.5443115234375 72.5627845294228) rotate(0 53.736106872558594 10)"><text x="0" y="14.096" font-family="Excalifont, Xiaolai, Segoe UI Emoji" font-size="16px" fill="#1e1e1e" text-anchor="start" style="white-space: pre;" direction="ltr" dominant-baseline="alphabetic">DB / Storage</text></g><g stroke-linecap="round" transform="translate(10 14.23369059631733) rotate(0 125.56962585449219 103.69621658325195)"><path d="M32 0 C82.54 -1.35, 136.58 0.82, 219.14 0 M32 0 C92.35 -0.98, 151.21 -1.41, 219.14 0 M219.14 0 C240.14 -0.56, 252.82 12.08, 251.14 32 M219.14 0 C240.61 -0.57, 253.36 11.03, 251.14 32 M251.14 32 C251.78 89.2, 253.79 143.4, 251.14 175.39 M251.14 32 C251.27 70.04, 251.81 108.74, 251.14 175.39 M251.14 175.39 C251.2 197.82, 238.63 205.96, 219.14 207.39 M251.14 175.39 C252.51 194.61, 242.01 208.24, 219.14 207.39 M219.14 207.39 C169.03 209.29, 118.59 205.69, 32 207.39 M219.14 207.39 C161.43 205.29, 104.77 205.82, 32 207.39 M32 207.39 C11.86 208.63, 1.15 197.32, 0 175.39 M32 207.39 C9.5 205.26, -1.05 194.49, 0 175.39 M0 175.39 C-2.13 135.69, -0.73 95.45, 0 32 M0 175.39 C0.49 139.28, 0.42 101.86, 0 32 M0 32 C0.18 8.79, 11.95 -0.24, 32 0 M0 32 C-1.62 11.55, 10.35 1.84, 32 0" stroke="#1e1e1e" stroke-width="2" fill="none"></path></g><g stroke-linecap="round"><g transform="translate(677.8424694640481 473.99588691329615) rotate(0 -100.97216731927153 -118.13764765457023)"><path d="M0.13 1 C-11.83 -24.51, -37.9 -112.95, -71.78 -152.55 C-105.65 -192.16, -181.27 -222.53, -203.12 -236.65 M-1.26 0.48 C-13.3 -24.91, -39.02 -111.86, -72.28 -151.19 C-105.54 -190.53, -179.04 -221.28, -200.84 -235.52" stroke="#1e1e1e" stroke-width="2" fill="none"></path></g><g transform="translate(677.8424694640481 473.99588691329615) rotate(0 -100.97216731927153 -118.13764765457023)"><path d="M-176.13 -231.72 C-181.86 -231.42, -191.46 -235.92, -200.84 -235.52 M-176.13 -231.72 C-181.81 -233.01, -189.74 -233.42, -200.84 -235.52" stroke="#1e1e1e" stroke-width="2" fill="none"></path></g><g transform="translate(677.8424694640481 473.99588691329615) rotate(0 -100.97216731927153 -118.13764765457023)"><path d="M-184.36 -216.72 C-187.69 -220.91, -194.84 -229.88, -200.84 -235.52 M-184.36 -216.72 C-187.71 -221.98, -193.43 -226.43, -200.84 -235.52" stroke="#1e1e1e" stroke-width="2" fill="none"></path></g></g><mask></mask><g stroke-linecap="round"><g transform="translate(402.8019020513359 475.83992572605376) rotate(0 -3.4176212941916333 -98.2185970155274)"><path d="M-1.09 -1.06 C-2 -33.58, -4.97 -163.63, -6 -196.09 M0.54 1 C-0.41 -31.82, -5.04 -164.89, -6.52 -198.04" stroke="#1e1e1e" stroke-width="2" fill="none"></path></g><g transform="translate(402.8019020513359 475.83992572605376) rotate(0 -3.4176212941916333 -98.2185970155274)"><path d="M2.94 -174.89 C-1.06 -179.5, -1.13 -187.59, -6.52 -198.04 M2.94 -174.89 C-0.05 -183.72, -4.34 -192.04, -6.52 -198.04" stroke="#1e1e1e" stroke-width="2" fill="none"></path></g><g transform="translate(402.8019020513359 475.83992572605376) rotate(0 -3.4176212941916333 -98.2185970155274)"><path d="M-14.15 -174.23 C-13.78 -178.85, -9.49 -187.11, -6.52 -198.04 M-14.15 -174.23 C-11.15 -183.2, -9.45 -191.76, -6.52 -198.04" stroke="#1e1e1e" stroke-width="2" fill="none"></path></g></g><mask></mask><g stroke-linecap="round"><g transform="translate(1249.9641722860215 468.3633072491804) rotate(0 -409.8650859977626 -228.97184222257584)"><path d="M0 0 C0.81 -133.71, 2.06 -265.9, 0 -441.94 M0 0 C-1.58 -159.93, -2.15 -319.61, 0 -441.94 M0 -441.94 C-0.57 -452.63, -6.11 -458.94, -16 -457.94 M0 -441.94 C2.02 -452.05, -3.72 -460.09, -16 -457.94 M-16 -457.94 C-204.84 -455.28, -394.15 -456.18, -747.83 -457.94 M-16 -457.94 C-222.88 -456.42, -429.09 -456.62, -747.83 -457.94 M-747.83 -457.94 C-758.97 -459.5, -764.45 -450.73, -763.83 -441.94 M-747.83 -457.94 C-757.39 -459.33, -762.83 -452.41, -763.83 -441.94 M-763.83 -441.94 C-764.48 -416.56, -762.44 -395.23, -763.83 -350.8 M-763.83 -441.94 C-764.29 -421.85, -763.63 -401.87, -763.83 -350.8 M-763.83 -350.8 C-762.86 -339.07, -768.33 -335.17, -779.83 -334.8 M-763.83 -350.8 C-762.87 -338.08, -770.58 -333.87, -779.83 -334.8 M-779.83 -334.8 C-787.64 -332.6, -795.56 -334.87, -803.73 -334.8 M-779.83 -334.8 C-787.06 -333.82, -794.96 -335.3, -803.73 -334.8 M-803.73 -334.8 C-812.78 -333.91, -819.82 -331.14, -819.73 -318.8 M-803.73 -334.8 C-813.06 -335.29, -820.46 -328.13, -819.73 -318.8 M-819.73 -318.8 C-818.84 -309.98, -819.54 -299.57, -819.73 -270.63 M-819.73 -318.8 C-819.89 -303.41, -820.71 -288.27, -819.73 -270.63" stroke="#1e1e1e" stroke-width="2" fill="none"></path></g><g transform="translate(1249.9641722860215 468.3633072491804) rotate(0 -409.8650859977626 -228.97184222257584)"><path d="M-828.99 -293.85 C-827.16 -287.59, -821.85 -278.21, -819.73 -270.63 M-828.99 -293.85 C-824.43 -285.63, -822.22 -276.83, -819.73 -270.63" stroke="#1e1e1e" stroke-width="2" fill="none"></path></g><g transform="translate(1249.9641722860215 468.3633072491804) rotate(0 -409.8650859977626 -228.97184222257584)"><path d="M-811.9 -294.37 C-815.23 -287.84, -815.07 -278.3, -819.73 -270.63 M-811.9 -294.37 C-813.52 -285.83, -817.49 -276.85, -819.73 -270.63" stroke="#1e1e1e" stroke-width="2" fill="none"></path></g></g><mask></mask></svg>